# Parede Simples - Exportada para teste
# 8 vértices
v -2.000000 0.000000 0.200000
v 2.000000 0.000000 0.200000
v -2.000000 3.000000 0.200000
v 2.000000 3.000000 0.200000
v -2.000000 0.000000 -0.200000
v 2.000000 0.000000 -0.200000
v -2.000000 3.000000 -0.200000
v 2.000000 3.000000 -0.200000

# 6 normais (uma para cada face)
vn 0.0000 0.0000 1.0000
vn 0.0000 0.0000 -1.0000
vn 0.0000 1.0000 0.0000
vn 0.0000 -1.0000 0.0000
vn 1.0000 0.0000 0.0000
vn -1.0000 0.0000 0.0000

# 12 faces trianguladas (formato: vertice//normal)
# Frente
f 1//1 2//1 4//1
f 1//1 4//1 3//1
# Trás
f 6//2 5//2 7//2
f 6//2 7//2 8//2
# Topo
f 3//3 4//3 8//3
f 3//3 8//3 7//3
# Base
f 5//4 6//4 2//4
f 5//4 2//4 1//4
# Direita
f 2//5 6//5 8//5
f 2//5 8//5 4//5
# Esquerda
f 5//6 1//6 3//6
f 5//6 3//6 7//6
